<?xml version="1.0" encoding="utf-8"?>
<!-- Generator: Adobe Illustrator 24.3.0, SVG Export Plug-In . SVG Version: 6.00 Build 0)  -->
<svg version="1.1" id="Modo_de_aislamiento" xmlns="http://www.w3.org/2000/svg" xmlns:xlink="http://www.w3.org/1999/xlink"
	 x="0px" y="0px" viewBox="0 0 60 60.28" style="enable-background:new 0 0 60 60.28;" xml:space="preserve">
<style type="text/css">
	.st0{fill-rule:evenodd;clip-rule:evenodd;fill:#33d16a;}
	.st1{fill-rule:evenodd;clip-rule:evenodd;fill:#33d16a;}
</style>
<g>
	<path class="st0" d="M59.19,23.11C55.9,9.47,44.16,0.16,29.98,0c-1.87,0.03-3.82,0.18-5.76,0.59C4.43,4.6-5.83,26.54,3.82,44.26
		c0.25,0.47,0.27,0.86,0.13,1.35c-1.28,4.67-2.55,9.34-3.83,14c-0.21,0.77-0.21,0.77,0.56,0.57c4.84-1.27,9.68-2.53,14.52-3.81
		c0.4-0.11,0.72-0.06,1.08,0.12c6.23,3.18,12.8,4.12,19.67,2.79C52.38,56.08,63.11,39.37,59.19,23.11z M34.17,54.47
		c-1.35,0.23-2.71,0.35-3.43,0.34c-5.26-0.02-9.56-1.19-13.5-3.58c-0.5-0.31-0.95-0.38-1.54-0.23c-2.65,0.73-5.33,1.39-7.98,2.1
		c-0.56,0.17-0.61,0.05-0.47-0.46c0.7-2.53,1.37-5.04,2.09-7.53c0.2-0.7,0.13-1.24-0.27-1.87c-5.46-8.77-5.23-19.71,0.88-27.82
		C16.3,6.96,24.93,3.5,35.25,5.7c10.17,2.14,16.66,8.71,19.05,18.84C57.56,38.38,48.16,52.14,34.17,54.47z"/>
	<path class="st1" d="M37.81,44.29c-1.07,0.05-2.09-0.2-3.11-0.48c-6.87-1.97-12.03-6.28-16.17-11.94c-1.57-2.13-3.02-4.33-3.5-6.98
		c-0.58-3.19,0.34-5.88,2.71-8.09c0.75-0.69,3.05-0.99,3.97-0.55c0.34,0.17,0.56,0.48,0.7,0.8c0.87,2.07,1.73,4.1,2.58,6.17
		c0.16,0.4,0.09,0.78-0.09,1.18c-0.44,0.95-1.14,1.71-1.85,2.46c-0.54,0.55-0.56,1.06-0.16,1.72c2.43,4.04,5.78,6.98,10.18,8.74
		c0.65,0.26,1.15,0.17,1.58-0.38c0.73-0.9,1.5-1.81,2.2-2.74c0.47-0.66,1.02-0.75,1.69-0.44c1.45,0.66,2.9,1.35,4.35,2.04
		c0.33,0.14,0.65,0.31,0.97,0.46c1.47,0.74,1.46,0.75,1.33,2.37c-0.25,3.17-2.62,4.73-5.44,5.51C39.12,44.3,38.46,44.32,37.81,44.29
		z"/>
</g>
</svg>
